# xmcd CD database file generated by LOLA_Freedb v0.9beta0
# 
# Track frame offsets:
#      150
#      2497
#      18182
#      22005
#      35897
#      37827
#      49572
#      50832
#      68385
#      70052
#      83700
#      85225
#      94605
#      97882
#      116112
#      127337
#      146020
#      147082
# 
# Disc length: 2180 seconds
# 
# Revision: 0 
# Processed by: cddbd v1.5.1PL2 Copyright (c) Steve Scherf et al.
# Submitted via: LOLA_Freedb v0.9beta0
# 
DISCID=ea088212
DTITLE=Easy Rider - 4444 Miles On The Road
DYEAR=1995
DGENRE=
TTITLE0=Easy Rider - Interview Country Roads 1991
TTITLE1=Easy Rider - Mit Howdy und Countrymusik
TTITLE2=Easy Rider - Interview
TTITLE3=Easy Rider - Kleine Countrywelt
TTITLE4=Interview mit Loman
TTITLE5=Easy Rider - It´s A Little To Late
TTITLE6=Interview mit Loman
TTITLE7=Easy Rider - Wild, Wide, Canada
TTITLE8=Interview in Nashville
TTITLE9=Easy Rider - Midnight-Rodeo
TTITLE10=Interview in Nashville
TTITLE11=Easy Rider - Heaven´s Just A Sin Away
TTITLE12=Interview in Nashville
TTITLE13=Easy Rider - Junge gehe nicht zu den Indios
TTITLE14=Easy Rider - It´s So Easy
TTITLE15=Easy Rider - Der alte Tramp
TTITLE16=Interview in Nashville
TTITLE17=Easy Rider - Grandpa
EXTD=
EXTT0=
EXTT1=
EXTT2=
EXTT3=
EXTT4=
EXTT5=
EXTT6=
EXTT7=
EXTT8=
EXTT9=
EXTT10=
EXTT11=
EXTT12=
EXTT13=
EXTT14=
EXTT15=
EXTT16=
EXTT17=
PLAYORDER=
